<svg width="60" height="60" viewBox="0 0 60 60" fill="none" xmlns="http://www.w3.org/2000/svg">
<rect width="60" height="60" rx="10" fill="black"/>
<path d="M47 32.1969C47 43.1951 39.3438 48.6942 30.2438 51.8836C29.7672 52.046 29.2496 52.0382 28.7781 51.8616C19.6562 48.6942 12 43.1951 12 32.1969V16.7995C12 16.2161 12.2305 15.6567 12.6407 15.2441C13.0509 14.8316 13.6073 14.5999 14.1875 14.5999C18.5625 14.5999 24.0312 11.9603 27.8375 8.61689C28.3009 8.21875 28.8905 8 29.5 8C30.1095 8 30.6991 8.21875 31.1625 8.61689C34.9906 11.9823 40.4375 14.5999 44.8125 14.5999C45.3927 14.5999 45.9491 14.8316 46.3593 15.2441C46.7695 15.6567 47 16.2161 47 16.7995V32.1969Z" stroke="white" stroke-width="2" stroke-linecap="round" stroke-linejoin="round"/>
<path d="M24.7954 29.1818L27.2954 31.5985L32.2954 26.7651" stroke="white" stroke-width="2" stroke-linecap="round" stroke-linejoin="round"/>
<path d="M28.5454 38.8485C34.0683 38.8485 38.5454 34.5206 38.5454 29.1818C38.5454 23.8431 34.0683 19.5151 28.5454 19.5151C23.0226 19.5151 18.5454 23.8431 18.5454 29.1818C18.5454 34.5206 23.0226 38.8485 28.5454 38.8485Z" stroke="white" stroke-width="2" stroke-linecap="round" stroke-linejoin="round"/>
<path d="M41.0454 41.2652L35.6704 36.0693" stroke="white" stroke-width="2" stroke-linecap="round" stroke-linejoin="round"/>
</svg>
