<svg width="60" height="60" viewBox="0 0 60 60" fill="none" xmlns="http://www.w3.org/2000/svg">
<rect width="60" height="60" rx="10" fill="black"/>
<path d="M42.6591 32.0478C42.6591 39.7965 37.2649 43.6709 30.8536 45.918C30.5178 46.0324 30.1531 46.0269 29.821 45.9025C23.3942 43.6709 18 39.7965 18 32.0478V21.1997C18 20.7886 18.1624 20.3945 18.4514 20.1038C18.7404 19.8132 19.1324 19.6499 19.5412 19.6499C22.6236 19.6499 26.4766 17.7902 29.1582 15.4346C29.4847 15.1541 29.9001 15 30.3295 15C30.759 15 31.1743 15.1541 31.5009 15.4346C34.1979 17.8057 38.0355 19.6499 41.1179 19.6499C41.5266 19.6499 41.9187 19.8132 42.2077 20.1038C42.4967 20.3945 42.6591 20.7886 42.6591 21.1997V32.0478Z" stroke="white" stroke-width="2" stroke-linecap="round" stroke-linejoin="round"/>
<path d="M27.015 29.9235L28.7763 31.6262L32.2991 28.2209" stroke="white" stroke-width="2" stroke-linecap="round" stroke-linejoin="round"/>
<path d="M29.657 36.7341C33.5481 36.7341 36.7025 33.6849 36.7025 29.9235C36.7025 26.1621 33.5481 23.1129 29.657 23.1129C25.7659 23.1129 22.6116 26.1621 22.6116 29.9235C22.6116 33.6849 25.7659 36.7341 29.657 36.7341Z" stroke="white" stroke-width="2" stroke-linecap="round" stroke-linejoin="round"/>
<path d="M38.4638 38.4368L34.6769 34.7761" stroke="white" stroke-width="2" stroke-linecap="round" stroke-linejoin="round"/>
</svg>
